<?xml version="1.0" standalone="no"?>
<!DOCTYPE svg PUBLIC "-//W3C//DTD SVG 20010904//EN"
 "http://www.w3.org/TR/2001/REC-SVG-20010904/DTD/svg10.dtd">
<svg version="1.0" xmlns="http://www.w3.org/2000/svg"
 width="512.000000pt" height="512.000000pt" viewBox="0 0 512.000000 512.000000"
 preserveAspectRatio="xMidYMid meet">

<g transform="translate(0.000000,512.000000) scale(0.100000,-0.100000)"
fill="#000000" stroke="none">
<path d="M2467 2709 c-313 -36 -595 -263 -698 -562 -39 -115 -53 -212 -46
-337 8 -134 26 -201 87 -325 90 -180 207 -298 385 -385 145 -71 202 -84 375
-84 154 -1 210 9 332 58 96 39 167 86 255 170 185 175 267 369 266 626 -1 152
-22 243 -88 375 -129 258 -371 429 -660 464 -99 12 -109 12 -208 0z m303 -615
c254 -121 313 -462 114 -661 -180 -180 -483 -151 -624 60 -56 83 -73 150 -68
256 5 105 35 177 104 251 91 97 175 131 314 128 82 -3 104 -7 160 -34z"/>
</g>
</svg>
